<?xml version="1.0" standalone="no"?>
<!DOCTYPE svg PUBLIC "-//W3C//DTD SVG 20010904//EN"
 "http://www.w3.org/TR/2001/REC-SVG-20010904/DTD/svg10.dtd">
<svg version="1.0" xmlns="http://www.w3.org/2000/svg"
 width="128.000000pt" height="128.000000pt" viewBox="0 0 128.000000 128.000000"
 preserveAspectRatio="xMidYMid meet">
<metadata>
Created by potrace 1.11, written by Peter Selinger 2001-2013
</metadata>
<g transform="translate(0.000000,128.000000) scale(0.100000,-0.100000)"
fill="#000000" stroke="none">
<path d="M500 1236 c-118 -33 -247 -132 -295 -226 -62 -122 -63 -255 -3 -375
11 -22 43 -65 72 -95 28 -30 37 -42 19 -26 -17 15 -35 27 -40 24 -27 -12 -83
-51 -83 -58 0 -11 63 -66 113 -97 118 -75 286 -96 424 -54 94 28 236 122 294
194 132 164 158 376 70 560 -57 117 -135 189 -149 135 -2 -9 -10 -14 -16 -12
-7 3 -19 -2 -26 -11 -10 -12 -10 -19 4 -37 101 -138 128 -203 131 -317 6 -220
-138 -408 -337 -439 -118 -18 -261 13 -333 73 -19 16 -18 16 8 0 106 -63 257
-70 367 -17 190 91 291 245 276 422 -11 128 -76 238 -181 306 -95 60 -211 78
-315 50z"/>
<path d="M594 286 c-3 -8 -16 -17 -30 -20 -22 -6 -24 -11 -23 -64 1 -31 1 -62
0 -68 -1 -7 -38 -11 -108 -11 -73 -1 -108 -4 -111 -12 -2 -7 -15 -17 -29 -22
-18 -6 -24 -15 -21 -32 l3 -22 288 -3 c285 -2 288 -2 320 20 43 31 49 41 32
57 -10 11 -45 14 -139 14 l-126 -1 0 77 c0 76 -9 101 -37 101 -8 0 -16 -6 -19
-14z"/>
</g>
</svg>
